<svg xmlns="http://www.w3.org/2000/svg" width="800" height="600" viewBox="0 0 800 600">
  <defs>
    <linearGradient id="sky-gradient" x1="0%" y1="0%" x2="0%" y2="100%">
      <stop offset="0%" style="stop-color:#87CEEB;stop-opacity:1" />
      <stop offset="100%" style="stop-color:#1E90FF;stop-opacity:1" />
    </linearGradient>
    
    <linearGradient id="water-gradient" x1="0%" y1="0%" x2="0%" y2="100%">
      <stop offset="0%" style="stop-color:#4682B4;stop-opacity:1" />
      <stop offset="100%" style="stop-color:#000080;stop-opacity:1" />
    </linearGradient>
  </defs>
  
  <!-- Background Sky -->
  <rect width="800" height="600" fill="url(#sky-gradient)" />
  
  <!-- Sun -->
  <circle cx="650" cy="100" r="60" fill="#FFD700" />
  
  <!-- Ocean -->
  <rect y="300" width="800" height="300" fill="url(#water-gradient)" />
  
  <!-- Beach -->
  <path d="M0,350 C100,330 200,340 300,320 C400,300 500,310 600,330 C700,350 800,340 800,340 L800,450 L0,450 Z" fill="#F0E68C" />
  
  <!-- Mountains -->
  <path d="M0,300 L100,150 L150,200 L200,100 L250,180 L300,120 L350,200 L400,80 L450,180 L500,120 L550,200 L600,150 L650,220 L700,150 L750,200 L800,150 L800,300 Z" fill="#228B22" />
  
  <!-- Temple Silhouette -->
  <g transform="translate(400, 250)">
    <!-- Base -->
    <rect x="-80" y="0" width="160" height="20" fill="#8B4513" />
    
    <!-- Steps -->
    <rect x="-70" y="-10" width="140" height="10" fill="#A0522D" />
    <rect x="-60" y="-20" width="120" height="10" fill="#A0522D" />
    
    <!-- Main Structure -->
    <rect x="-50" y="-60" width="100" height="40" fill="#8B4513" />
    
    <!-- Roof -->
    <path d="M-60,-60 L60,-60 L0,-100 Z" fill="#A0522D" />
    
    <!-- Decorative Elements -->
    <rect x="-40" y="-50" width="10" height="30" fill="#A0522D" />
    <rect x="-20" y="-50" width="10" height="30" fill="#A0522D" />
    <rect x="0" y="-50" width="10" height="30" fill="#A0522D" />
    <rect x="20" y="-50" width="10" height="30" fill="#A0522D" />
    <rect x="40" y="-50" width="10" height="30" fill="#A0522D" />
  </g>
  
  <!-- Palm Trees -->
  <g transform="translate(150, 350)">
    <rect x="-5" y="0" width="10" height="60" fill="#8B4513" />
    <path d="M0,0 C-30,-10 -40,-30 -20,-40 C-40,-30 -50,-50 -25,-55 C-45,-50 -55,-70 -30,-80 C-15,-75 0,-70 0,-70 C0,-70 15,-75 30,-80 C55,-70 45,-50 25,-55 C50,-50 40,-30 20,-40 C40,-30 30,-10 0,0 Z" fill="#228B22" />
  </g>
  
  <g transform="translate(650, 370)">
    <rect x="-5" y="0" width="10" height="60" fill="#8B4513" />
    <path d="M0,0 C-30,-10 -40,-30 -20,-40 C-40,-30 -50,-50 -25,-55 C-45,-50 -55,-70 -30,-80 C-15,-75 0,-70 0,-70 C0,-70 15,-75 30,-80 C55,-70 45,-50 25,-55 C50,-50 40,-30 20,-40 C40,-30 30,-10 0,0 Z" fill="#228B22" />
  </g>
  
  <!-- Small Boat -->
  <g transform="translate(500, 500)">
    <path d="M-30,0 L30,0 L20,-15 L-20,-15 Z" fill="#8B4513" />
    <rect x="-2" y="-40" width="4" height="25" fill="#8B4513" />
    <path d="M-2,-40 L-2,-15 L15,-27.5 Z" fill="#FFFFFF" />
  </g>
  
  <!-- Clouds -->
  <g opacity="0.8">
    <ellipse cx="200" cy="100" rx="50" ry="20" fill="white" />
    <ellipse cx="230" cy="110" rx="40" ry="15" fill="white" />
    <ellipse cx="170" cy="105" rx="30" ry="12" fill="white" />
    
    <ellipse cx="500" cy="150" rx="60" ry="25" fill="white" />
    <ellipse cx="530" cy="160" rx="45" ry="20" fill="white" />
    <ellipse cx="470" cy="155" rx="35" ry="15" fill="white" />
  </g>
  
  <!-- Water Reflections -->
  <g opacity="0.3">
    <ellipse cx="650" cy="500" rx="40" ry="10" fill="#FFD700" />
    <path d="M370,500 L430,500 L400,480 Z" fill="#8B4513" />
  </g>
</svg>