<svg xmlns="http://www.w3.org/2000/svg" width="1920" height="1080" viewBox="0 0 1920 1080">
  <defs>
    <linearGradient id="sky-gradient" x1="0%" y1="0%" x2="0%" y2="100%">
      <stop offset="0%" style="stop-color:#FF7F50;stop-opacity:1" />
      <stop offset="100%" style="stop-color:#FF1493;stop-opacity:1" />
    </linearGradient>
    
    <pattern id="pattern-sunset" patternUnits="userSpaceOnUse" width="1920" height="1080">
      <!-- Sky with Gradient -->
      <rect width="1920" height="1080" fill="url(#sky-gradient)" />
      
      <!-- Sun/Moon -->
      <circle cx="960" cy="300" r="100" fill="#FFD700" opacity="0.8" />
      
      <!-- Mountains Silhouette -->
      <path d="M0,700 L200,600 L400,650 L600,550 L800,650 L1000,500 L1200,600 L1400,550 L1600,650 L1800,600 L1920,650 L1920,1080 L0,1080 Z" fill="#000000" opacity="0.7" />
      
      <!-- Water Reflection -->
      <path d="M0,700 L1920,700 L1920,900 L0,900 Z" fill="#FFD700" opacity="0.3" />
      
      <!-- Stars -->
      <g>
        <circle cx="200" cy="100" r="2" fill="white" opacity="0.8" />
        <circle cx="300" cy="150" r="1" fill="white" opacity="0.6" />
        <circle cx="500" cy="80" r="1.5" fill="white" opacity="0.7" />
        <circle cx="700" cy="200" r="1" fill="white" opacity="0.5" />
        <circle cx="900" cy="120" r="2" fill="white" opacity="0.8" />
        <circle cx="1100" cy="180" r="1.5" fill="white" opacity="0.7" />
        <circle cx="1300" cy="90" r="1" fill="white" opacity="0.6" />
        <circle cx="1500" cy="150" r="2" fill="white" opacity="0.8" />
        <circle cx="1700" cy="100" r="1" fill="white" opacity="0.5" />
        <circle cx="1800" cy="200" r="1.5" fill="white" opacity="0.7" />
        
        <circle cx="250" cy="250" r="1" fill="white" opacity="0.6" />
        <circle cx="450" cy="180" r="1.5" fill="white" opacity="0.7" />
        <circle cx="650" cy="220" r="1" fill="white" opacity="0.5" />
        <circle cx="850" cy="150" r="2" fill="white" opacity="0.8" />
        <circle cx="1050" cy="250" r="1" fill="white" opacity="0.6" />
        <circle cx="1250" cy="180" r="1.5" fill="white" opacity="0.7" />
        <circle cx="1450" cy="220" r="1" fill="white" opacity="0.5" />
        <circle cx="1650" cy="150" r="2" fill="white" opacity="0.8" />
        <circle cx="1850" cy="250" r="1" fill="white" opacity="0.6" />
      </g>
      
      <!-- Clouds -->
      <g opacity="0.7">
        <ellipse cx="300" cy="350" rx="100" ry="40" fill="#FF6347" />
        <ellipse cx="350" cy="370" rx="80" ry="30" fill="#FF6347" />
        <ellipse cx="250" cy="360" rx="70" ry="25" fill="#FF6347" />
        
        <ellipse cx="1600" cy="400" rx="120" ry="50" fill="#FF6347" />
        <ellipse cx="1650" cy="420" rx="90" ry="35" fill="#FF6347" />
        <ellipse cx="1550" cy="410" rx="80" ry="30" fill="#FF6347" />
      </g>
      
      <!-- Palm Tree Silhouettes -->
      <g transform="translate(200, 700)">
        <rect x="-5" y="0" width="10" height="80" fill="black" />
        <path d="M0,0 C-40,-20 -50,-50 -20,-60 C-50,-50 -60,-80 -30,-90 C-60,-80 -70,-110 -40,-120 C-20,-110 0,-100 0,-100 C0,-100 20,-110 40,-120 C70,-110 60,-80 30,-90 C60,-80 50,-50 20,-60 C50,-50 40,-20 0,0 Z" fill="black" />
      </g>
      
      <g transform="translate(1700, 700)">
        <rect x="-5" y="0" width="10" height="80" fill="black" />
        <path d="M0,0 C-40,-20 -50,-50 -20,-60 C-50,-50 -60,-80 -30,-90 C-60,-80 -70,-110 -40,-120 C-20,-110 0,-100 0,-100 C0,-100 20,-110 40,-120 C70,-110 60,-80 30,-90 C60,-80 50,-50 20,-60 C50,-50 40,-20 0,0 Z" fill="black" />
      </g>
    </pattern>
  </defs>
  
  <!-- Background Pattern -->
  <rect width="1920" height="1080" fill="url(#pattern-sunset)" />
  
  <!-- Dark Overlay for Text Readability -->
  <rect width="1920" height="1080" fill="black" opacity="0.3" />
</svg>