<svg xmlns="http://www.w3.org/2000/svg" width="1920" height="1080" viewBox="0 0 1920 1080">
  <defs>
    <linearGradient id="overlay-gradient" x1="0%" y1="0%" x2="100%" y2="0%">
      <stop offset="0%" style="stop-color:rgba(0,0,0,0.7);stop-opacity:1" />
      <stop offset="100%" style="stop-color:rgba(0,0,0,0.4);stop-opacity:1" />
    </linearGradient>
    
    <pattern id="pattern-beach" patternUnits="userSpaceOnUse" width="1920" height="1080">
      <!-- Sky -->
      <rect width="1920" height="500" fill="#87CEEB" />
      
      <!-- Sun -->
      <circle cx="1600" cy="200" r="80" fill="#FFD700" />
      
      <!-- Ocean -->
      <rect y="500" width="1920" height="300" fill="#1E90FF" />
      
      <!-- Beach -->
      <path d="M0,800 C400,750 800,780 1200,760 C1600,740 1920,780 1920,780 L1920,1080 L0,1080 Z" fill="#F0E68C" />
      
      <!-- Palm Trees -->
      <g transform="translate(300, 700) scale(0.8)">
        <rect x="-10" y="0" width="20" height="100" fill="#8B4513" />
        <path d="M0,0 C-50,-20 -70,-60 -30,-80 C-70,-60 -90,-100 -40,-110 C-80,-100 -100,-140 -50,-160 C-30,-150 0,-140 0,-140 C0,-140 30,-150 50,-160 C100,-140 80,-100 40,-110 C90,-100 70,-60 30,-80 C70,-60 50,-20 0,0 Z" fill="#228B22" />
      </g>
      
      <g transform="translate(1600, 750) scale(1)">
        <rect x="-10" y="0" width="20" height="120" fill="#8B4513" />
        <path d="M0,0 C-60,-30 -80,-70 -40,-90 C-80,-70 -100,-110 -50,-120 C-90,-110 -110,-150 -60,-170 C-40,-160 0,-150 0,-150 C0,-150 40,-160 60,-170 C110,-150 90,-110 50,-120 C100,-110 80,-70 40,-90 C80,-70 60,-30 0,0 Z" fill="#228B22" />
      </g>
      
      <!-- Small Boat -->
      <g transform="translate(800, 600) scale(0.5)">
        <path d="M-50,0 L50,0 L30,-20 L-30,-20 Z" fill="#8B4513" />
        <rect x="-5" y="-60" width="10" height="40" fill="#8B4513" />
        <path d="M-5,-60 L-5,-20 L30,-40 Z" fill="#FFFFFF" />
      </g>
      
      <!-- Clouds -->
      <g transform="translate(400, 150)">
        <ellipse cx="0" cy="0" rx="60" ry="40" fill="white" />
        <ellipse cx="50" cy="10" rx="50" ry="30" fill="white" />
        <ellipse cx="-40" cy="10" rx="40" ry="25" fill="white" />
      </g>
      
      <g transform="translate(1000, 200)">
        <ellipse cx="0" cy="0" rx="70" ry="45" fill="white" />
        <ellipse cx="60" cy="10" rx="55" ry="35" fill="white" />
        <ellipse cx="-50" cy="10" rx="45" ry="30" fill="white" />
      </g>
      
      <!-- Mountains in Background -->
      <path d="M0,500 L300,300 L400,400 L500,200 L700,450 L900,250 L1100,400 L1300,200 L1500,350 L1700,250 L1920,500 Z" fill="#6B8E23" opacity="0.7" />
    </pattern>
  </defs>
  
  <!-- Background Pattern -->
  <rect width="1920" height="1080" fill="url(#pattern-beach)" />
  
  <!-- Overlay Gradient -->
  <rect width="1920" height="1080" fill="url(#overlay-gradient)" />
</svg>