<svg xmlns="http://www.w3.org/2000/svg" width="800" height="600" viewBox="0 0 800 600">
  <defs>
    <linearGradient id="sky-gradient" x1="0%" y1="0%" x2="0%" y2="100%">
      <stop offset="0%" style="stop-color:#00BFFF;stop-opacity:1" />
      <stop offset="100%" style="stop-color:#1E90FF;stop-opacity:1" />
    </linearGradient>
    
    <linearGradient id="water-gradient" x1="0%" y1="0%" x2="0%" y2="100%">
      <stop offset="0%" style="stop-color:#00CED1;stop-opacity:1" />
      <stop offset="100%" style="stop-color:#000080;stop-opacity:1" />
    </linearGradient>
    
    <radialGradient id="sun-gradient" cx="50%" cy="50%" r="50%" fx="50%" fy="50%">
      <stop offset="0%" style="stop-color:#FFFFFF;stop-opacity:1" />
      <stop offset="100%" style="stop-color:#FFD700;stop-opacity:1" />
    </radialGradient>
  </defs>
  
  <!-- Background Sky -->
  <rect width="800" height="600" fill="url(#sky-gradient)" />
  
  <!-- Sun -->
  <circle cx="650" cy="100" r="60" fill="url(#sun-gradient)" />
  
  <!-- Ocean -->
  <rect y="250" width="800" height="350" fill="url(#water-gradient)" />
  
  <!-- Islands -->
  <path d="M0,350 C50,320 100,330 150,300 C200,270 250,290 300,280 C350,270 400,250 450,270 C500,290 550,270 600,290 C650,310 700,300 750,320 C800,340 800,350 800,350 L800,450 L0,450 Z" fill="#228B22" />
  
  <!-- Island Details -->
  <path d="M0,350 C50,320 100,330 150,300 C200,270 250,290 300,280 L300,450 L0,450 Z" fill="#228B22" />
  <path d="M300,280 C350,270 400,250 450,270 L450,450 L300,450 Z" fill="#228B22" />
  <path d="M450,270 C500,290 550,270 600,290 L600,450 L450,450 Z" fill="#228B22" />
  <path d="M600,290 C650,310 700,300 750,320 C800,340 800,350 800,350 L800,450 L600,450 Z" fill="#228B22" />
  
  <!-- Beach Areas -->
  <path d="M50,350 C70,340 90,345 110,335 L110,450 L50,450 Z" fill="#F0E68C" />
  <path d="M350,280 C370,275 390,270 410,275 L410,450 L350,450 Z" fill="#F0E68C" />
  <path d="M650,320 C670,315 690,320 710,330 L710,450 L650,450 Z" fill="#F0E68C" />
  
  <!-- Coral Reefs (Underwater) -->
  <g opacity="0.7">
    <ellipse cx="100" cy="500" rx="40" ry="20" fill="#FF7F50" />
    <ellipse cx="300" cy="520" rx="50" ry="25" fill="#FF69B4" />
    <ellipse cx="500" cy="510" rx="45" ry="22" fill="#9370DB" />
    <ellipse cx="700" cy="530" rx="55" ry="27" fill="#FF7F50" />
    
    <ellipse cx="200" cy="550" rx="35" ry="17" fill="#FF69B4" />
    <ellipse cx="400" cy="540" rx="30" ry="15" fill="#9370DB" />
    <ellipse cx="600" cy="560" rx="40" ry="20" fill="#FF7F50" />
  </g>
  
  <!-- Palm Trees -->
  <g transform="translate(100, 330)">
    <rect x="-4" y="0" width="8" height="50" fill="#8B4513" />
    <path d="M0,0 C-25,-8 -35,-25 -15,-35 C-35,-25 -40,-45 -20,-50 C-40,-45 -45,-65 -25,-70 C-10,-65 0,-60 0,-60 C0,-60 10,-65 25,-70 C45,-65 40,-45 20,-50 C40,-45 35,-25 15,-35 C35,-25 25,-8 0,0 Z" fill="#228B22" />
  </g>
  
  <g transform="translate(400, 270)">
    <rect x="-4" y="0" width="8" height="50" fill="#8B4513" />
    <path d="M0,0 C-25,-8 -35,-25 -15,-35 C-35,-25 -40,-45 -20,-50 C-40,-45 -45,-65 -25,-70 C-10,-65 0,-60 0,-60 C0,-60 10,-65 25,-70 C45,-65 40,-45 20,-50 C40,-45 35,-25 15,-35 C35,-25 25,-8 0,0 Z" fill="#228B22" />
  </g>
  
  <g transform="translate(700, 320)">
    <rect x="-4" y="0" width="8" height="50" fill="#8B4513" />
    <path d="M0,0 C-25,-8 -35,-25 -15,-35 C-35,-25 -40,-45 -20,-50 C-40,-45 -45,-65 -25,-70 C-10,-65 0,-60 0,-60 C0,-60 10,-65 25,-70 C45,-65 40,-45 20,-50 C40,-45 35,-25 15,-35 C35,-25 25,-8 0,0 Z" fill="#228B22" />
  </g>
  
  <!-- Traditional Boat (Jukung) -->
  <g transform="translate(500, 400)">
    <path d="M-40,0 L40,0 L30,-10 L-30,-10 Z" fill="#8B4513" />
    <path d="M-40,0 C-50,10 -45,20 -40,20 L40,20 C45,20 50,10 40,0 Z" fill="#A0522D" />
    <rect x="-2" y="-30" width="4" height="20" fill="#8B4513" />
    <path d="M-2,-30 L-2,-10 L20,-20 Z" fill="#FFFFFF" />
  </g>
  
  <!-- Snorkeler -->
  <g transform="translate(250, 480)">
    <circle cx="0" cy="0" r="5" fill="#FFA07A" />
    <path d="M0,5 L0,15" stroke="#000000" stroke-width="2" />
    <path d="M0,8 L-10,5" stroke="#000000" stroke-width="2" />
    <path d="M0,8 L10,5" stroke="#000000" stroke-width="2" />
    <path d="M0,15 L-5,25" stroke="#000000" stroke-width="2" />
    <path d="M0,15 L5,25" stroke="#000000" stroke-width="2" />
    <path d="M-8,-2 L8,-2" stroke="#000000" stroke-width="2" />
  </g>
  
  <!-- Fish -->
  <g>
    <path d="M150,480 C155,475 160,473 165,475 C170,477 170,483 165,485 C160,487 155,485 150,480 Z" fill="#FF4500" />
    <path d="M165,480 L170,478 L170,482 Z" fill="#FF4500" />
    
    <path d="M350,500 C355,495 360,493 365,495 C370,497 370,503 365,505 C360,507 355,505 350,500 Z" fill="#4169E1" />
    <path d="M365,500 L370,498 L370,502 Z" fill="#4169E1" />
    
    <path d="M550,490 C555,485 560,483 565,485 C570,487 570,493 565,495 C560,497 555,495 550,490 Z" fill="#FFD700" />
    <path d="M565,490 L570,488 L570,492 Z" fill="#FFD700" />
    
    <path d="M650,510 C655,505 660,503 665,505 C670,507 670,513 665,515 C660,517 655,515 650,510 Z" fill="#9370DB" />
    <path d="M665,510 L670,508 L670,512 Z" fill="#9370DB" />
  </g>
  
  <!-- Clouds -->
  <g opacity="0.8">
    <ellipse cx="150" cy="100" rx="50" ry="20" fill="white" />
    <ellipse cx="180" cy="110" rx="40" ry="15" fill="white" />
    <ellipse cx="120" cy="105" rx="30" ry="12" fill="white" />
    
    <ellipse cx="450" cy="120" rx="60" ry="25" fill="white" />
    <ellipse cx="480" cy="130" rx="45" ry="20" fill="white" />
    <ellipse cx="420" cy="125" rx="35" ry="15" fill="white" />
  </g>
  
  <!-- Water Reflections -->
  <g opacity="0.3">
    <ellipse cx="650" cy="500" rx="40" ry="10" fill="#FFD700" />
  </g>
  
  <!-- Water Surface Details -->
  <g stroke="#FFFFFF" stroke-width="1" opacity="0.3">
    <path d="M50,350 C70,352 90,348 110,350" fill="none" />
    <path d="M200,360 C220,362 240,358 260,360" fill="none" />
    <path d="M350,370 C370,372 390,368 410,370" fill="none" />
    <path d="M500,380 C520,382 540,378 560,380" fill="none" />
    <path d="M650,390 C670,392 690,388 710,390" fill="none" />
  </g>
</svg>